<?xml version="1.0" standalone="no"?>
<!DOCTYPE svg PUBLIC "-//W3C//DTD SVG 1.1//EN" "http://www.w3.org/Graphics/SVG/1.1/DTD/svg11.dtd" >
<svg xmlns="http://www.w3.org/2000/svg">
<metadata>Generated by IcoMoon</metadata>
<defs>
<font id="icomoon" horiz-adv-x="512">
<font-face units-per-em="512" ascent="480" descent="-32" />
<missing-glyph horiz-adv-x="512" />
<glyph unicode="&#x20;" d="" horiz-adv-x="256" />
<glyph unicode="&#xe600;" d="M388.147 371.2h-263.014c-9.022 0-16.333-7.301-16.333-16.313v-263.024c0-9.011 7.301-16.322 16.333-16.322h141.589v114.493h-38.533v44.626h38.533v32.901c0 38.185 23.317 58.972 57.395 58.972 16.322 0 30.341-1.208 34.427-1.751v-39.916l-23.623-0.010c-18.534 0-22.118-8.796-22.118-21.709v-28.488h44.175l-5.745-44.626h-38.421v-114.493h75.346c9.001 0 16.313 7.301 16.313 16.322v263.024c-0.010 9.011-7.322 16.313-16.322 16.313z" />
<glyph unicode="&#xe601;" d="M322.642 209.92l6.748 52.377h-51.845v33.444c0 15.145 4.199 25.477 25.959 25.477l27.73 0.020v46.848c-4.793 0.635-21.248 2.058-40.407 2.058-39.998 0-67.369-24.402-67.369-69.223v-38.615h-45.23v-52.377h45.23v-134.38h54.088v134.37h45.097z" />
<glyph unicode="&#xe602;" d="M382.72 371.2h-253.44c-11.305 0-20.48-9.175-20.48-20.48v-253.44c0-11.305 9.175-20.48 20.48-20.48h253.44c11.305 0 20.48 9.175 20.48 20.48v253.44c0 11.305-9.175 20.48-20.48 20.48zM339.651 268.185c0.082-1.853 0.123-3.707 0.123-5.581 0-57.037-43.418-122.819-122.808-122.819-24.381 0-47.073 7.158-66.171 19.405 3.379-0.399 6.82-0.604 10.302-0.604 20.224 0 38.83 6.902 53.607 18.483-18.893 0.348-34.826 12.82-40.325 29.983 2.631-0.512 5.335-0.778 8.12-0.778 3.932 0 7.742 0.533 11.367 1.515-19.753 3.963-34.621 21.401-34.621 42.332 0 0.174 0 0.358 0 0.532 5.816-3.226 12.472-5.171 19.548-5.397-11.571 7.742-19.2 20.951-19.2 35.922 0 7.906 2.13 15.329 5.847 21.699 21.289-26.112 53.105-43.305 88.965-45.097-0.738 3.164-1.126 6.451-1.126 9.83 0 23.849 19.333 43.172 43.172 43.172 12.411 0 23.634-5.243 31.509-13.63 9.831 1.935 19.067 5.519 27.413 10.466-3.226-10.076-10.066-18.545-18.985-23.88 8.735 1.044 17.060 3.358 24.791 6.789-5.765-8.653-13.087-16.261-21.524-22.344z" />
<glyph unicode="&#xe603;" d="M400.231 314.736c-10.608-4.7-22.016-7.885-33.997-9.308 12.216 7.322 21.606 18.923 26.030 32.738-11.438-6.789-24.105-11.704-37.581-14.357-10.803 11.5-26.183 18.688-43.202 18.688-32.676 0-59.187-26.491-59.187-59.187 0-4.638 0.532-9.155 1.536-13.476-49.183 2.458-92.805 26.030-121.989 61.829-5.1-8.745-8.018-18.913-8.018-29.757 0-20.521 10.455-38.646 26.327-49.255-9.708 0.297-18.821 2.97-26.808 7.393 0-0.236 0-0.491 0-0.737 0-28.682 20.398-52.603 47.472-58.030-4.976-1.351-10.199-2.079-15.595-2.079-3.83 0-7.526 0.368-11.131 1.065 7.536-23.522 29.389-40.622 55.286-41.103-20.255-15.882-45.783-25.334-73.502-25.334-4.772 0-9.493 0.276-14.121 0.829 26.194-16.793 57.303-26.594 90.727-26.594 108.851 0 168.387 90.183 168.387 168.387 0 2.57-0.062 5.12-0.174 7.659 11.582 8.346 21.616 18.77 29.543 30.628z" />
<glyph unicode="&#xe604;" d="M404.459 297.308v36.946c0 20.409-16.538 36.946-36.956 36.946h-221.747c-20.409 0-36.956-16.537-36.956-36.946v-16.046c17.193 17.889 43.234 29.901 71.997 29.901 26.184 0 100.127 0 100.127 0l-22.364-23.47h-26.286c18.535-10.629 28.395-32.502 28.395-56.617 0-22.129-12.257-39.977-29.584-53.514-16.906-13.2-20.112-18.729-20.112-29.962 0-9.584 20.203-23.849 29.491-30.812 32.327-24.248 38.871-39.495 38.871-69.827 0-2.775-0.276-5.55-0.717-8.305h88.883c20.429 0 36.956 16.538 36.956 36.946v161.659h-46.203v-46.183h-23.091v46.183h-46.203v23.091h46.203v46.183h23.091v-46.183h46.203zM203.12 132.382c-7.946 2.56-16.681 4.065-26.071 4.178-29.307 0.317-55.296-13.353-67.257-32.379 3.809-16.363 18.442-28.57 35.963-28.57h102.328c0.082 1.331 0.174 2.652 0.174 4.024 0 3.687-0.461 7.291-1.29 10.793-4.413 17.296-22.016 26.777-43.847 41.954zM220.446 266.506c-4.669 35.441-27.75 64.512-54.743 65.331-26.972 0.798-45.077-26.327-40.428-61.767 4.659-35.43 30.31-60.18 57.303-61 26.993-0.798 42.517 22.006 37.868 57.436zM108.8 134.615c15.37 8.478 34.048 13.762 55.070 13.762 6.328 0 12.155 0.164 18.155 0.164-7.946 7.741-14.387 14.428-14.387 26.122 0 6.933 2.212 13.568 5.315 19.507-3.154-0.215-6.39-0.399-9.708-0.399-23.153 0-41.554 7.916-54.436 20.818v-79.974z" />
<glyph unicode="&#xe605;" d="M203.233 371.067h0.215c0.133 0.010 0.276 0.030 0.42 0.051l-0.635-0.051zM254.31 214.518c0 0-27.505 12.339-3.318 35.574 25.17 15.033 39.987 41.103 35.431 67.656-2.775 16.22-12.308 29.87-25.846 39.363v0.020h20.777l25.538 14.080-103.454-0.133c-2.222-0.226-4.454-0.491-6.697-0.87-43.305-7.414-73.38-42.906-67.144-79.288 5.55-32.43 38.083-54.6 75.766-53.76-0.092-0.154-11.223-18.534 8.161-36.854l0.113-0.051c-6.615-0.144-13.383-0.748-20.265-1.863-51.865-8.438-89.508-42.394-84.060-75.838 5.438-33.444 51.897-53.709 103.772-45.271s83.938 39.168 85.863 71.998c0.010-0.010 7.957 22.313-44.636 65.239zM168.53 291.042c-9.359 29.235 0.645 58.573 22.364 65.526s46.91-11.111 56.269-40.346c9.37-29.235-0.655-58.573-22.364-65.536-21.709-6.942-46.899 11.121-56.269 40.356zM212.398 94.32c0 0-68.106 4.577-68.106 45.793 0 0-6.871 45.783 85.852 45.783 0 0 40.632-24.034 40.632-52.080 0 0 1.997-39.495-58.378-39.495zM402.125 241.705h-37.488v37.489h-20.029v-37.488h-37.488v-20.039h37.488v-37.488h20.029v37.488h37.488z" />
<glyph unicode="&#xe606;" d="M233.728 195.226l59.935 31.068-59.935 31.263zM108.8 371.2v-294.4h293.918v294.4h-293.918zM367.545 215.623c0-17.95-2.202-35.901-2.202-35.901s-2.171-15.278-8.817-22.016c-8.438-8.837-17.899-8.878-22.231-9.401-31.038-2.233-77.66-2.314-77.66-2.314s-57.672 0.522-75.418 2.233c-4.935 0.921-16.016 0.645-24.464 9.482-6.646 6.738-8.816 22.016-8.816 22.016s-2.222 17.95-2.222 35.901v16.834c0 17.951 2.222 35.901 2.222 35.901s2.161 15.298 8.816 22.016c8.438 8.848 17.889 8.889 22.221 9.401 31.048 2.243 77.609 2.243 77.609 2.243h0.103c0 0 46.572 0 77.609-2.243 4.332-0.512 13.793-0.553 22.231-9.401 6.646-6.727 8.817-22.016 8.817-22.016s2.202-17.94 2.202-35.901v-16.834z" />
<glyph unicode="&#xe607;" d="M399.81 282.409c0 0-2.857 20.142-11.623 29.010-11.111 11.643-23.562 11.704-29.276 12.38-40.889 2.959-102.216 2.959-102.216 2.959h-0.133c0 0-61.327 0-102.206-2.959-5.714-0.676-18.155-0.738-29.276-12.38-8.755-8.857-11.612-29.010-11.612-29.010s-2.928-23.634-2.928-47.278v-22.169c0-23.644 2.928-47.288 2.928-47.288s2.857-20.132 11.612-29c11.11-11.643 25.712-11.274 32.215-12.493 23.378-2.253 99.328-2.939 99.328-2.939s61.399 0.103 102.288 3.041c5.714 0.676 18.166 0.738 29.276 12.38 8.755 8.868 11.623 29 11.623 29s2.908 23.644 2.908 47.288v22.169c0 23.655-2.908 47.289-2.908 47.289zM226.468 186.102v82.094l78.94-41.175-78.94-40.919z" />
<glyph unicode="&#xe608;" d="M384.676 371.2h-254.915c-11.571 0-20.962-9.39-20.962-20.971v-254.905c0-11.582 9.39-20.962 20.962-20.962h254.915c11.582 0 20.962 9.39 20.962 20.962v254.904c0 11.582-9.38 20.971-20.962 20.971zM196.987 117.709h-44.523v143.074h44.524v-143.074zM175.237 279.153c-14.582 0-26.398 11.817-26.398 26.409s11.817 26.398 26.399 26.398 26.409-11.817 26.409-26.399-11.817-26.409-26.409-26.409zM361.534 195.87v-78.172h-44.534v78.172c0 0 0.113 29.522-24.228 29.522 0 0-24.33-0.85-24.33-36.147v-71.536h-44.534v143.074h44.534v-18.821c0 0 7.25 22.272 45.046 22.272 0-0.010 51.056 3.614 48.046-68.362z" />
<glyph unicode="&#xe609;" d="M115.876 272.281h61.184v-196.588h-61.184v196.587zM275.241 173.998c0 48.507 33.433 49.674 33.433 49.674 33.444 0 33.29-40.56 33.29-40.56v-107.408h61.194v107.397c4.137 98.887-66.017 93.911-66.017 93.911-51.938 0-61.891-30.597-61.891-30.597v25.866h-61.194v-196.587h61.194v98.304zM183.46 333.803c0-20.037-16.244-36.28-36.28-36.28s-36.281 16.244-36.281 36.281c0 20.037 16.243 36.281 36.281 36.281s36.281-16.244 36.281-36.281z" />
<glyph unicode="&#xe60a;" d="M403.2 369.889c0 1.065-0.236 1.31-1.321 1.31-97.25-0.031-194.509-0.031-291.758 0-1.075 0-1.321-0.246-1.321-1.31 0.041-48.578 0.031-97.157 0.031-145.736 0-48.671 0.010-97.351-0.031-146.033 0-1.065 0.246-1.31 1.321-1.31 97.25 0.031 194.509 0.031 291.758 0 1.075 0 1.321 0.246 1.321 1.31-0.021 97.25-0.021 194.499 0 291.769zM361.769 275.958c-0.256-13.271-4.752-25.364-10.517-37.069-8.079-16.445-18.401-31.478-29.409-46.060-7.475-9.913-15.227-19.599-23.736-28.642-7.834-8.325-16.108-16.128-25.682-22.466-6.103-4.045-12.585-7.209-19.774-8.919-10.435-2.468-18.77 0.85-25.354 8.97-7.178 8.827-11.745 18.974-14.715 29.911-5.54 20.398-11.059 40.796-16.691 61.163-1.976 7.209-4.464 14.254-8.048 20.849-1.372 2.539-2.939 4.946-5.048 6.953-0.86 0.85-1.792 1.577-2.867 2.13-1.905 0.963-3.758 1.127-5.755 0.051-4.506-2.447-8.745-5.325-12.912-8.305-1.075-0.768-1.649-0.645-2.396 0.379-2.642 3.533-5.335 7.014-8.079 10.455-0.696 0.88-0.645 1.362 0.174 2.099 8.54 7.567 17.070 15.125 25.518 22.763 6.471 5.858 13.087 11.52 20.398 16.333 4.004 2.632 8.11 5.181 12.851 6.226 9.462 2.089 18.964-0.758 25.098-10.25 3.973-6.154 6.042-13.015 7.291-20.101 2.058-11.632 3.85-23.306 5.816-34.949 1.905-11.367 4.208-22.641 7.772-33.639 1.157-3.594 2.54-7.117 4.496-10.384 0.819-1.362 1.731-2.642 2.918-3.717 2.079-1.884 4.26-2.161 6.738-0.829 2.755 1.485 4.935 3.676 6.861 6.052 9.308 11.602 17.173 24.084 22.487 38.031 2.058 5.397 2.918 11.018 1.669 16.773-1.31 5.97-5.806 9.462-11.93 9.666-5.694 0.195-11.141-0.717-16.404-2.857-0.286-0.112-0.574-0.358-0.932-0.194-0.205 0.286-0.082 0.573 0 0.829 3.328 10.363 7.659 20.245 14.5 28.826 8.868 11.111 20.275 17.736 34.457 19.394 2.949 0.348 5.898 0.625 8.868 0.533 6.697-0.215 13.25-1.096 19.005-4.946 6.093-4.065 9.513-9.964 11.366-16.865 1.618-5.97 2.089-12.053 1.966-18.197z" />
<glyph unicode="&#xe60b;" d="M120.996 266.957c1.044-1.423 1.843-1.587 3.338-0.522 5.785 4.137 11.674 8.131 17.941 11.541 2.775 1.495 5.345 1.28 7.998-0.072 1.495-0.768 2.775-1.782 3.983-2.959 2.939-2.786 5.11-6.134 7.014-9.657 4.976-9.165 8.428-18.954 11.182-28.969 7.833-28.304 15.513-56.658 23.204-85.002 4.117-15.207 10.465-29.307 20.45-41.584 9.165-11.294 20.736-15.892 35.236-12.473 10.004 2.365 19.006 6.779 27.484 12.39 13.302 8.806 24.812 19.651 35.697 31.222 11.827 12.575 22.589 26.030 32.983 39.813 15.288 20.265 29.655 41.144 40.868 64.010 8.018 16.272 14.254 33.075 14.613 51.517 0.174 8.54-0.481 16.999-2.714 25.293-2.57 9.605-7.332 17.797-15.8 23.45-7.998 5.345-17.101 6.584-26.419 6.882-4.127 0.123-8.233-0.256-12.329-0.738-19.702-2.304-35.563-11.51-47.882-26.952-9.513-11.94-15.534-25.661-20.152-40.069-0.123-0.358-0.276-0.748 0-1.147 0.502-0.236 0.891 0.103 1.29 0.266 7.322 2.98 14.889 4.25 22.805 3.973 8.51-0.286 14.745-5.13 16.579-13.435 1.731-8.008 0.543-15.811-2.325-23.317-7.394-19.394-18.32-36.731-31.252-52.859-2.673-3.308-5.714-6.349-9.534-8.418-3.44-1.853-6.482-1.464-9.36 1.157-1.649 1.495-2.918 3.277-4.055 5.161-2.724 4.536-4.639 9.431-6.246 14.428-4.956 15.278-8.151 30.956-10.803 46.745-2.734 16.19-5.232 32.41-8.089 48.579-1.741 9.851-4.618 19.394-10.137 27.945-8.519 13.189-21.73 17.142-34.877 14.244-6.595-1.454-12.309-4.997-17.858-8.663-10.158-6.697-19.353-14.551-28.355-22.702-11.745-10.629-23.593-21.125-35.461-31.642-1.136-1.024-1.209-1.69-0.246-2.908 3.82-4.793 7.557-9.625 11.233-14.531z" />
<glyph unicode="&#xe60c;" d="M108.8 371.2v-294.4h294.4v294.4h-294.4zM279.409 137.892c-40.007-0.686-55.163 28.498-55.163 49.039v59.996h-18.576v23.716c27.853 10.025 34.56 35.164 36.126 49.479 0.102 0.993 0.881 1.382 1.31 1.382 0.44 0 26.911 0 26.911 0v-46.786h36.721v-27.791h-36.874v-57.159c0.133-7.793 2.98-18.503 17.685-18.115 4.874 0.133 11.397 1.557 14.807 3.185l8.827-26.194c-3.308-4.864-18.288-10.517-31.774-10.752z" />
<glyph unicode="&#xe60d;" d="M199.854 154.091c0-32.962 24.32-79.79 88.535-78.704 21.637 0.379 45.691 9.431 51.015 17.255l-14.172 42.046c-5.488-2.601-15.943-4.885-23.767-5.11-23.603-0.625-28.17 16.579-28.375 29.072v91.73h59.166v44.606h-58.942v75.090c0 0-42.476 0-43.182 0-0.696 0-1.956-0.635-2.109-2.222-2.519-22.958-13.281-63.303-57.979-79.401v-38.062h29.809v-96.297z" />
<glyph unicode="&#xe60e;" d="M355.563 371.2h-198.974c-26.347 0-47.79-21.432-47.79-47.79v-198.973c0-26.358 21.442-47.79 47.79-47.79h198.974c26.348 0 47.79 21.433 47.79 47.79v198.974c0 26.358-21.442 47.79-47.79 47.79zM311.255 325.192c0 7.137 5.776 12.912 12.923 12.912h30.997c7.127 0 12.913-5.776 12.913-12.912v-30.997c0-7.137-5.786-12.912-12.913-12.912h-30.997c-7.137 0-12.923 5.765-12.923 12.912v30.997zM256.072 283.74c32.788 0 59.361-26.573 59.361-59.351s-26.573-59.351-59.361-59.351c-32.778 0-59.341 26.573-59.341 59.351-0.010 32.788 26.563 59.351 59.341 59.351zM373.647 124.447c0-9.974-8.11-18.094-18.084-18.094h-198.974c-9.974 0-18.094 8.11-18.094 18.094v122.911h30.976c-2.028-7.495-3.133-15.36-3.133-23.501 0-49.551 40.172-89.713 89.713-89.713 49.562 0 89.723 40.161 89.723 89.712 0 8.141-1.096 16.005-3.134 23.501h30.976v-122.91z" />
<glyph unicode="&#xe60f;" d="M255.826 371.2c-81.193 0-147.026-65.822-147.026-147.026 0-60.201 36.198-111.923 88.013-134.656-0.41 10.26-0.082 22.579 2.56 33.762 2.816 11.93 18.913 80.108 18.913 80.108s-4.69 9.39-4.69 23.255c0 21.791 12.615 38.062 28.355 38.062 13.374 0 19.835-10.035 19.835-22.067 0-13.445-8.571-33.556-12.984-52.173-3.676-15.596 7.813-28.324 23.214-28.324 27.853 0 46.623 35.779 46.623 78.172 0 32.225-21.709 56.34-61.194 56.34-44.585 0-72.366-33.27-72.366-70.41 0-12.81 3.779-21.852 9.687-28.836 2.724-3.216 3.102-4.505 2.109-8.192-0.696-2.714-2.325-9.226-2.99-11.806-0.973-3.728-3.994-5.048-7.363-3.676-20.531 8.387-30.106 30.884-30.106 56.166 0 41.769 35.225 91.842 105.083 91.842 56.135 0 93.072-40.612 93.072-84.224 0-57.671-32.062-100.762-79.329-100.762-15.872 0-30.802 8.571-35.911 18.329 0 0-8.54-33.884-10.352-40.428-3.113-11.325-9.216-22.661-14.797-31.488 13.22-3.911 27.197-6.021 41.666-6.021 81.193 0 147.015 65.813 147.015 147.016-0.021 81.213-65.843 147.036-147.036 147.036z" />
<glyph unicode="&#xe610;" d="M256.952 370.197c-81.94 0-148.398-66.437-148.398-148.388 0-65.567 42.517-121.18 101.489-140.81 7.414-1.372 10.137 3.226 10.137 7.147 0 3.533-0.133 15.227-0.205 27.627-41.287-8.99-49.992 17.5-49.992 17.5-6.748 17.152-16.476 21.719-16.476 21.719-13.465 9.206 1.014 9.022 1.014 9.022 14.899-1.045 22.743-15.298 22.743-15.298 13.23-22.681 34.714-16.128 43.182-12.329 1.331 9.595 5.181 16.138 9.421 19.845-32.963 3.748-67.605 16.476-67.605 73.339 0 16.21 5.796 29.44 15.288 39.834-1.536 3.738-6.615 18.832 1.444 39.27 0 0 12.462 3.984 40.816-15.216 11.838 3.287 24.535 4.936 37.141 4.997 12.606-0.061 25.313-1.71 37.171-4.997 28.324 19.2 40.766 15.216 40.766 15.216 8.079-20.45 3-35.533 1.464-39.27 9.513-10.394 15.278-23.624 15.278-39.834 0-56.996-34.724-69.54-67.758-73.216 5.325-4.608 10.066-13.639 10.066-27.474 0-19.856-0.174-35.84-0.174-40.724 0-3.952 2.673-8.581 10.189-7.127 58.921 19.64 101.397 75.254 101.397 140.79-0.010 81.94-66.457 148.377-148.398 148.377zM164.762 157.143c-0.327-0.738-1.485-0.962-2.54-0.45-1.075 0.481-1.69 1.495-1.331 2.233 0.317 0.758 1.485 0.973 2.56 0.461 1.065-0.491 1.679-1.505 1.31-2.243v0zM170.773 150.436c-0.717-0.656-2.099-0.348-3.031 0.686-0.973 1.034-1.147 2.416-0.43 3.082 0.727 0.656 2.078 0.348 3.042-0.686 0.963-1.045 1.157-2.416 0.42-3.082v0zM176.63 141.885c-0.911-0.635-2.396-0.041-3.318 1.28-0.911 1.321-0.911 2.908 0.020 3.543 0.922 0.635 2.386 0.062 3.318-1.25 0.901-1.341 0.901-2.928-0.020-3.574v0zM184.637 133.632c-0.809-0.891-2.55-0.656-3.81 0.574-1.3 1.198-1.659 2.898-0.85 3.799 0.829 0.891 2.56 0.645 3.84-0.574 1.29-1.198 1.679-2.908 0.819-3.799v0zM195.696 128.839c-0.358-1.157-2.028-1.7-3.707-1.198-1.679 0.512-2.775 1.874-2.437 3.041 0.348 1.168 2.028 1.721 3.717 1.198 1.669-0.512 2.775-1.863 2.427-3.041v0zM207.841 127.949c0.041-1.229-1.382-2.243-3.154-2.263-1.772-0.041-3.205 0.952-3.226 2.151 0 1.239 1.403 2.243 3.174 2.274 1.762 0.031 3.205-0.942 3.205-2.161v0zM219.136 129.874c0.215-1.188-1.014-2.416-2.775-2.745-1.72-0.317-3.318 0.43-3.533 1.608-0.215 1.229 1.034 2.447 2.765 2.765 1.751 0.307 3.318-0.42 3.543-1.628v0z" />
<glyph unicode="&#xe611;" d="M254.72 367.79c-80.24 0-145.285-65.045-145.285-145.285 0-80.231 65.044-145.275 145.285-145.275 80.231 0 145.275 65.044 145.275 145.275 0.010 80.24-65.034 145.285-145.275 145.285zM376.269 224.502v0c-31.959 6.451-59.781 6.718-83.825 3.093-3.205 7.547-6.697 15.329-10.506 23.286 53.228 21.074 67.799 47.35 67.84 47.411 16.2-20.296 26.041-45.896 26.491-73.79zM335.114 313.692c-14.633-19.476-37.878-33.044-63.406-42.506-12.032 22.722-26.603 46.418-44.216 69.826 8.755 2.007 17.869 3.062 27.238 3.062 30.822 0 58.962-11.479 80.384-30.382zM202.435 332.278c0.041-0.062 20.808-27.996 43.541-69.171-54.487-14.367-109.793-13.639-109.814-13.639 8.294 36.639 33.136 67.010 66.273 82.811zM133.191 225.219c52.572 1.25 92.958 8.089 123.781 17.131 3.338-6.584 6.656-13.383 9.892-20.378-73.615-21.616-103.26-79.8-103.301-79.882-18.923 21.433-30.403 49.582-30.403 80.415-0.010 0.911 0.010 1.813 0.030 2.714zM180.45 126.269c28.877 43.233 63.601 64.686 95.652 74.649 11.93-28.866 21.74-59.955 25.815-90.471v0c-14.51-6.123-30.454-9.502-47.186-9.502-27.976-0.010-53.739 9.442-74.281 25.324zM324.844 123.187c-0.010 0.041-5.468 34.56-23.962 83.415 41.523 6.339 73.615-4.086 73.769-4.127-5.427-32.666-23.859-60.938-49.808-79.288z" />
<glyph unicode="&#xe612;" d="M236.831 248.986c-3.082-4.935-4.373-20.47-3.298-30.791 0.369-3.399 0.983-6.236 1.884-7.926 1.229-2.345 3.298-3.748 5.662-3.82 1.506-0.082 2.458 0.174 30.915 9.329 0 0 12.656 4.045 12.708 4.055 3.154 0.809 5.284 3.697 5.478 7.414 0.215 3.81-1.762 7.158-4.987 8.356 0 0-8.919 3.625-8.94 3.625-30.587 12.626-31.959 13.127-33.495 13.138-2.365 0.102-4.464-1.095-5.929-3.379zM305.264 154.993c0.491 1.444 0.553 2.406 0.635 32.327 0 0 0.062 13.209 0.082 13.342 0.195 3.236-1.894 6.185-5.335 7.506-3.522 1.351-7.322 0.522-9.462-2.14 0 0-6.226-7.404-6.257-7.404-21.442-25.17-22.334-26.337-22.856-27.822-0.317-0.88-0.44-1.802-0.338-2.745 0.133-1.321 0.727-2.663 1.731-3.87 4.966-5.918 28.805-14.684 36.413-13.394 2.642 0.491 4.546 1.976 5.386 4.199zM353.577 165.397c7.188 2.867 22.856 22.815 23.962 30.485 0.379 2.673-0.45 4.976-2.294 6.441-1.209 0.891-2.14 1.27-30.567 10.599 0 0-12.493 4.106-12.647 4.199-3.010 1.168-6.462 0.082-8.786-2.775-2.396-2.939-2.765-6.789-0.85-9.738l5.028-8.171c16.875-27.423 18.166-29.358 19.394-30.31 1.884-1.474 4.281-1.721 6.759-0.727zM338.893 236.001c32.327 7.823 33.567 8.233 34.857 9.072 1.945 1.331 2.939 3.533 2.765 6.226 0 0.092 0.010 0.174 0 0.266-0.829 7.936-14.736 28.59-21.586 31.939-2.427 1.157-4.864 1.075-6.861-0.256-1.27-0.829-2.171-2.048-19.476-25.723 0 0-7.824-10.649-7.926-10.752-2.058-2.499-2.079-6.103-0.062-9.175 2.079-3.205 5.601-4.751 8.837-3.85 0 0-0.133-0.226-0.174-0.266 1.587 0.573 4.444 1.29 9.625 2.519zM306.432 262.687v0c-0.563 12.81-4.403 69.857-4.864 72.499-0.656 2.396-2.519 4.106-5.212 4.782-8.264 2.048-39.793-6.809-45.639-12.82-1.874-1.956-2.56-4.362-2.007-6.502 0.922-1.894 14.366-23.019 24.207-38.451l15.79-24.914c5.786-9.38 10.496-7.916 12.032-7.445 1.546 0.482 6.236 1.925 5.693 12.851zM150.088 122.041c4.137-3.83 11.97-4.905 21.483-2.98 8.919 1.762 14.459 5.755 19.784 22.671l26.512 83.333c1.372 4.423 1.27 8.263-0.297 11.1-1.28 2.304-3.41 3.861-6.41 4.649-4.731 1.3-10.629 1.167-14.346-11.52l-12.503-42.557-1.403-4.711-26.583 49.049c0 0-1.762 4.485-1.792 4.495-1.792 3.574-7.024 6.134-12.37 4.014-6.974-2.642-9.287-8.909-6.523-16.978 0 0 34.488-70.174 34.56-70.359 0 0 0.942-2.498 0.942-2.898 0 0 0.307-1.925 0.307-1.976-0.061-2.704-0.973-4.966-2.581-6.502-1.597-1.485-3.799-2.274-6.38-2.151 0 0-5.376 0.113-5.786 0.113-5.53-0.686-8.99-3.84-9.554-8.745-0.379-3.154 0.635-5.929 2.939-8.048z" />
<glyph unicode="&#xe613;" d="M377.753 229.345c32.738 32.747 32.738 85.842 0 118.579-32.748 32.748-85.842 32.748-118.579 0-31.242-31.242-32.604-80.967-4.229-113.91l-10.599-10.598-5.929 5.929-130.447-130.437 20.746-20.757 130.458 130.447-5.929 5.939 10.598 10.599c32.932-28.385 82.668-27.024 113.91 4.208zM271.769 335.339c25.784 25.785 67.594 25.785 93.379 0 25.794-25.795 25.794-67.604 0-93.389-25.784-25.784-67.594-25.784-93.379 0-25.794 25.785-25.794 67.594 0 93.389z" />
<glyph unicode="&#xe614;" d="M108.8 364.308v-61.849h294.4v61.849h-294.4zM108.8 194.447h294.4v61.675h-294.4v-61.675zM108.8 86.252h294.4v61.849h-294.4v-61.849z" />
<glyph unicode="&#xe615;" d="M108.8 364.308v-61.849h65.71v61.849h-65.71zM108.8 194.447h65.71v61.675h-65.71v-61.675zM108.8 86.252h65.71v61.849h-65.71v-61.849zM195.41 364.308v-61.849h207.79v61.849h-207.79zM195.41 194.447h207.79v61.675h-207.79v-61.675zM195.41 86.252h207.79v61.849h-207.79v-61.849z" />
<glyph unicode="&#xe616;" d="M223.15 364.308v-61.849h65.71v61.849h-65.71zM223.15 194.447h65.71v61.675h-65.71v-61.675zM223.15 86.252h65.71v61.849h-65.71v-61.849z" />
<glyph unicode="&#xe617;" d="M132.444 194.017v62.802h12.513l14.869-44.472c1.372-4.137 2.365-7.24 3-9.288 0.717 2.284 1.822 5.632 3.338 10.066l15.032 43.694h11.182v-62.802h-8.007v52.562l-18.248-52.562h-7.506l-18.155 53.463v-53.463h-8.018zM205.957 194.017v62.802h45.404v-7.414h-37.1v-19.231h34.744v-7.373h-34.745v-21.371h38.553v-7.414h-46.858zM264.212 194.017v62.802h8.519l32.993-49.305v49.305h7.966v-62.802h-8.53l-32.983 49.346v-49.346h-7.966zM368.865 256.819h8.305v-36.28c0-6.308-0.707-11.315-2.14-15.033-1.423-3.717-4.004-6.728-7.731-9.063-3.738-2.334-8.622-3.492-14.674-3.492-5.888 0-10.701 1.014-14.438 3.041s-6.41 4.966-8.007 8.807-2.396 9.083-2.396 15.739v36.281h8.315v-36.24c0-5.458 0.512-9.472 1.515-12.063 1.014-2.58 2.755-4.577 5.233-5.97 2.468-1.403 5.488-2.099 9.063-2.099 6.113 0 10.466 1.382 13.066 4.158 2.591 2.775 3.901 8.1 3.901 15.985v36.229zM392.96 281.457v-112.067h-273.92v112.067h273.92zM403.2 291.697h-294.4v-132.547h294.4v132.547z" />
<glyph unicode="&#xe618;" d="M394.896 292.27l-140.175-164.342-140.165 164.342z" />
<glyph unicode="&#xe619;" d="M255.929 371.2c-81.213 0-147.036-65.904-147.036-147.2s65.833-147.2 147.036-147.2 147.036 65.904 147.036 147.2-65.833 147.2-147.036 147.2zM255.929 97.28c-69.785 0-126.556 56.842-126.556 126.72s56.77 126.72 126.556 126.72 126.556-56.842 126.556-126.72-56.771-126.72-126.556-126.72zM339.067 236.534l-74.23-0.891-0.891 74.24-20.48-0.256 0.891-74.23-74.24-0.891 0.256-20.48 74.23 0.891 0.891-74.24 20.48 0.256-0.891 74.23 74.24 0.891z" />
<glyph unicode="&#xe61a;" d="M338.729 236.094l-0.317 0.071c-4.976-16.855-16.425-25.16-20.869-36.659-4.055-10.517-25.17-25.324-44.103-29.706-2.826-0.563-5.898 0.625-6.553 3.922-3.952 18.207-5.13 64.707-5.243 98.663 0 0.542 0 1.085-0.010 1.638l49.173 12.688c0.748 0.317 0.348 2.673-0.86 5.263-1.239 2.601-2.826 4.485-3.584 4.178h-44.841c0.010 9.052 0.276 14.848 1.382 15.268 0 0 0 0 0.010 0.010 5.305 2.816 8.93 8.387 8.93 14.807 0 9.236-7.516 16.752-16.763 16.752s-16.763-7.506-16.763-16.752c0-6.41 3.625-11.981 8.929-14.807 0.010 0 0.010-0.010 0.020-0.010 1.106-0.42 1.362-6.216 1.372-15.268h-44.841c-0.748 0.297-2.355-1.577-3.584-4.178-1.219-2.59-1.607-4.946-0.87-5.263v0l49.173-12.688c-0.010-0.542-0.010-1.085-0.010-1.638-0.102-33.946-1.28-80.456-5.243-98.663-0.655-3.298-3.727-4.485-6.553-3.922-18.923 4.382-40.059 19.19-44.103 29.706-4.434 11.5-15.882 19.804-20.869 36.659l-0.317-0.071c-6.38-16.537-3.952-45.895 8.335-59.341h0.798c0.41 1.659 1.526 3.533 3.686 3.533 7.516 0 18.535-14.889 40.489-26.86 16.251-8.858 25.139-18.545 30.167-26.603h0.348c5.028 8.059 13.916 17.746 30.157 26.603 21.965 11.971 32.973 26.86 40.489 26.86 2.161 0 3.287-1.884 3.687-3.533h0.798c12.308 13.445 14.736 42.803 8.356 59.341zM255.078 333.967c4.27 0 7.731-3.461 7.731-7.721s-3.461-7.721-7.731-7.721-7.731 3.461-7.731 7.721c0 4.26 3.461 7.721 7.731 7.721zM226.59 269.619c1.597-0.686 2.99-1.639 4.167-2.816 1.188-1.188 2.13-2.581 2.826-4.178 0.696-1.607 1.044-3.318 1.044-5.12v-3.983c0-0.973-0.451-1.597-1.351-1.874l-9.523-2.509c-0.901-0.276-1.351 0.051-1.351 1.044v6.799c0 0.696-0.236 1.29-0.727 1.782-0.482 0.482-1.085 0.738-1.772 0.738h-0.839c-0.707 0-1.3-0.256-1.782-0.738-0.482-0.491-0.727-1.075-0.727-1.782v-9.513c0.061-0.768 0.205-1.434 0.42-1.987 0.205-0.553 0.594-1.116 1.147-1.679l13.691-10.24c1.116-0.983 1.833-1.976 2.15-2.99 0.307-1.014 0.542-2.14 0.676-3.399v-17.982c0-1.813-0.348-3.522-1.044-5.12-0.696-1.608-1.638-3-2.826-4.188s-2.57-2.13-4.167-2.816c-1.607-0.697-3.318-1.045-5.13-1.045h-3.973c-1.822 0-3.523 0.348-5.12 1.045-1.607 0.686-2.99 1.628-4.178 2.816s-2.13 2.58-2.826 4.188c-0.686 1.598-1.044 3.308-1.044 5.12v10.035c0 0.973 0.44 1.598 1.351 1.884l9.513 2.509c0.911 0.286 1.372-0.062 1.372-1.055v-12.841c0-0.707 0.246-1.29 0.727-1.782s1.075-0.727 1.782-0.727h0.839c0.686 0 1.29 0.236 1.772 0.727 0.492 0.481 0.727 1.075 0.727 1.782v13.793c-0.071 0.901-0.205 1.71-0.42 2.396-0.215 0.696-0.635 1.331-1.26 1.884l-13.486 10.343c-1.044 0.973-1.792 1.956-2.243 2.939s-0.676 2.263-0.676 3.861v12.544c0 1.813 0.348 3.522 1.044 5.12s1.638 2.99 2.826 4.178c1.188 1.188 2.57 2.13 4.178 2.816 1.597 0.696 3.308 1.055 5.12 1.055h3.973c1.802 0.010 3.512-0.348 5.12-1.034zM297.236 269.619c1.608-0.686 2.99-1.639 4.178-2.816 1.188-1.188 2.13-2.581 2.816-4.178 0.707-1.607 1.055-3.318 1.055-5.12v-8.356c0-0.983-0.461-1.618-1.362-1.884l-9.513-1.464c-0.911-0.286-1.362 0.061-1.362 1.054v10.127c0 0.696-0.246 1.29-0.727 1.782-0.491 0.482-1.086 0.738-1.782 0.738h-0.839c-0.697 0-1.28-0.256-1.772-0.738-0.491-0.491-0.727-1.075-0.727-1.782v-47.248c0-0.707 0.236-1.29 0.727-1.782s1.075-0.727 1.772-0.727h0.839c0.697 0 1.29 0.236 1.782 0.727 0.481 0.481 0.727 1.075 0.727 1.782v14.633c0 0.983 0.45 1.321 1.362 1.044l9.513-1.25c0.891-0.276 1.362-0.901 1.362-1.884v-13.066c0-1.813-0.348-3.522-1.055-5.12-0.697-1.608-1.639-3-2.816-4.188-1.188-1.188-2.57-2.13-4.178-2.816-1.608-0.697-3.318-1.045-5.13-1.045h-3.952c-1.822 0-3.522 0.348-5.13 1.045-1.598 0.686-2.99 1.628-4.178 2.816s-2.13 2.58-2.826 4.188c-0.686 1.598-1.045 3.308-1.045 5.12v48.302c0 1.813 0.348 3.523 1.045 5.12s1.639 2.99 2.826 4.178c1.188 1.188 2.58 2.13 4.178 2.816 1.608 0.697 3.308 1.054 5.13 1.054h3.963c1.813-0.020 3.512-0.379 5.12-1.065zM188.815 360.571c-2.253-4.475-3.891-9.861-5.232-14.551-0.532-1.822-1.024-3.655-1.526-5.488l-0.738-2.704c-0.113-0.471-0.276-1.065-0.43-1.649-0.123-0.43-0.236-0.86-0.348-1.29 0.369-0.041 0.717-0.082 1.065-0.112 1.741-0.185 3.349-0.205 4.894-0.103 2.509 0.185 4.731 0.758 6.533 1.69 3.205 1.639 5.642 4.373 7.895 8.868 2.161 4.373 3.779 9.605 5.212 14.613 0.502 1.741 0.973 3.492 1.454 5.222l0.809 2.99c0.123 0.502 0.286 1.106 0.451 1.721 0.102 0.379 0.215 0.778 0.317 1.178-0.348 0.041-0.686 0.071-1.014 0.102-1.741 0.174-3.349 0.195-4.885 0.103-2.519-0.195-4.741-0.768-6.533-1.7-3.185-1.649-5.622-4.373-7.926-8.889zM166.533 344.535c-0.041 0.522-0.092 1.168-0.123 1.792-0.030 0.409-0.051 0.809-0.082 1.208-0.348-0.061-0.676-0.143-0.994-0.226-1.638-0.379-3.102-0.85-4.649-1.495-2.314-1.014-4.229-2.274-5.632-3.737-2.499-2.581-3.911-5.96-4.618-10.967-0.676-4.956-0.471-10.588-0.215-15.473 0.092-1.935 0.215-3.87 0.348-5.796l0.174-2.683c0.051-0.502 0.092-1.116 0.143-1.731 0.030-0.43 0.061-0.87 0.092-1.311 0.358 0.072 0.707 0.154 1.044 0.236 1.638 0.379 3.093 0.85 4.659 1.495 2.314 0.994 4.239 2.253 5.632 3.717 2.499 2.601 3.901 5.98 4.567 10.957 0.625 4.864 0.451 10.332 0.174 15.513-0.092 1.843-0.215 3.666-0.338 5.489l-0.185 3.010zM137.851 300.831c-0.676 1.71-1.393 3.389-2.099 5.069l-1.167 2.796c-0.215 0.471-0.451 1.055-0.696 1.638-0.164 0.379-0.317 0.748-0.482 1.127-0.297-0.185-0.583-0.368-0.86-0.532-1.413-0.891-2.631-1.813-3.891-2.929-1.884-1.71-3.277-3.533-4.117-5.356-1.526-3.267-1.761-6.912-0.799-11.899 0.993-4.915 3.021-10.168 4.843-14.695 0.707-1.772 1.444-3.512 2.181-5.274l1.075-2.56c0.215-0.45 0.44-1.024 0.686-1.587 0.164-0.41 0.338-0.809 0.512-1.219 0.317 0.185 0.625 0.379 0.911 0.563 1.413 0.88 2.631 1.802 3.911 2.918 1.863 1.71 3.267 3.523 4.117 5.366 1.516 3.256 1.741 6.912 0.758 11.837-0.994 4.803-2.939 9.923-4.885 14.736zM132.096 227.84c1.208 2.212 1.946 4.382 2.14 6.4 0.379 3.574-0.594 7.096-3.143 11.459-2.478 4.188-5.99 8.397-9.41 12.329-1.209 1.403-2.416 2.745-3.625 4.096l-2.017 2.274c-0.348 0.369-0.758 0.829-1.177 1.29-0.276 0.307-0.553 0.625-0.829 0.932-0.225-0.266-0.451-0.522-0.645-0.788-1.055-1.3-1.915-2.56-2.734-4.034-1.219-2.222-1.956-4.413-2.15-6.41-0.379-3.574 0.584-7.107 3.123-11.5 2.284-3.901 5.397-7.751 9.359-12.309 1.249-1.475 2.529-2.898 3.82-4.321l1.823-2.038c0.359-0.369 0.778-0.85 1.198-1.3 0.276-0.317 0.563-0.635 0.85-0.942 0.246 0.276 0.461 0.553 0.676 0.819 1.044 1.321 1.905 2.581 2.744 4.045zM133.263 203.694c-3.738 3.185-8.418 6.011-12.912 8.601-1.587 0.932-3.184 1.822-4.772 2.704l-2.642 1.474c-0.451 0.236-0.963 0.533-1.485 0.829-0.389 0.215-0.768 0.43-1.157 0.645-0.133-0.327-0.246-0.656-0.348-0.952-0.573-1.577-0.973-3.051-1.27-4.711-0.43-2.488-0.409-4.772 0.051-6.748 0.809-3.502 2.867-6.523 6.686-9.861 3.42-2.959 7.629-5.57 12.862-8.591 1.607-0.952 3.236-1.863 4.864-2.755l2.55-1.423c0.461-0.246 1.034-0.563 1.607-0.87 0.348-0.195 0.707-0.389 1.054-0.584 0.143 0.338 0.266 0.656 0.379 0.993 0.573 1.557 0.973 3.051 1.29 4.741 0.43 2.457 0.41 4.752-0.061 6.728-0.819 3.492-2.877 6.512-6.697 9.779zM134.718 151.296c4.219-1.68 9.031-2.796 14.96-3.952 1.822-0.348 3.625-0.676 5.447-1.003l2.908-0.533c0.471-0.072 1.065-0.174 1.659-0.276 0.44-0.082 0.891-0.154 1.351-0.226 0.010 0.379 0.010 0.727 0.010 1.075 0.030 1.69-0.071 3.205-0.317 4.864-0.41 2.488-1.167 4.659-2.253 6.38-1.915 3.051-4.844 5.223-9.523 7.086-4.536 1.772-9.902 2.939-15.012 3.922-1.741 0.348-3.471 0.645-5.202 0.973-1.065 0.195-2.109 0.379-3.164 0.574-0.502 0.082-1.116 0.195-1.731 0.307-0.409 0.072-0.819 0.144-1.229 0.215-0.010-0.348-0.020-0.686-0.020-1.014-0.020-1.669 0.092-3.226 0.328-4.854 0.409-2.509 1.168-4.68 2.253-6.39 1.915-3.062 4.844-5.253 9.534-7.147zM155.577 130.939l-2.929-0.44c-0.512-0.092-1.106-0.185-1.7-0.276-0.43-0.062-0.85-0.133-1.28-0.205 0.102-0.338 0.205-0.656 0.307-0.973 0.522-1.587 1.116-2.99 1.894-4.495 1.198-2.212 2.621-4.014 4.208-5.294 2.786-2.263 6.287-3.379 11.335-3.635 0.676-0.031 1.372-0.051 2.089-0.051 4.035 0 8.243 0.481 13.333 1.188 1.915 0.256 3.82 0.563 5.703 0.86l2.693 0.42c0.512 0.082 1.137 0.185 1.762 0.286 0.42 0.062 0.829 0.133 1.25 0.195-0.102 0.368-0.215 0.697-0.327 1.034-0.512 1.577-1.116 2.99-1.894 4.485-1.198 2.222-2.621 4.034-4.208 5.294-2.796 2.263-6.287 3.369-11.315 3.594-0.594 0.031-1.229 0.041-1.863 0.041-4.423 0-9.155-0.574-13.609-1.209-1.802-0.246-3.625-0.533-5.447-0.819zM230.492 108.514c-1.853 1.71-3.789 2.969-5.703 3.625-3.43 1.26-7.004 1.157-11.868-0.266-4.679-1.392-9.605-3.779-14.244-6.154-1.628-0.819-3.215-1.659-4.823-2.498l-2.724-1.433c-0.44-0.236-0.973-0.533-1.495-0.809-0.389-0.205-0.768-0.399-1.147-0.615 0.205-0.286 0.399-0.553 0.604-0.819 1.024-1.341 2.048-2.488 3.256-3.625 1.853-1.71 3.789-2.959 5.703-3.625 3.43-1.27 6.974-1.168 11.909 0.236 4.342 1.27 8.827 3.349 14.213 6.093 1.741 0.87 3.451 1.782 5.161 2.693l2.355 1.25c0.44 0.236 0.963 0.512 1.485 0.788 0.41 0.215 0.809 0.43 1.219 0.645-0.215 0.307-0.43 0.594-0.645 0.85-1.014 1.372-2.038 2.498-3.256 3.666zM300.964 370.934c0.113-0.45 0.226-0.86 0.338-1.28 0.154-0.573 0.317-1.137 0.461-1.71l0.748-2.745c0.481-1.792 0.962-3.584 1.485-5.346 1.68-5.816 3.195-10.526 5.243-14.663 2.253-4.475 4.69-7.209 7.854-8.827 1.822-0.942 4.055-1.516 6.656-1.71 0.502-0.031 1.116-0.051 1.751-0.051 1.003 0 1.976 0.051 2.98 0.164 0.379 0.031 0.748 0.082 1.137 0.133-0.113 0.43-0.215 0.829-0.327 1.219-0.164 0.614-0.327 1.229-0.481 1.843l-0.717 2.57c-0.491 1.822-0.983 3.656-1.505 5.458-1.362 4.72-2.99 10.107-5.253 14.613-2.294 4.485-4.731 7.209-7.895 8.827-1.822 0.942-4.045 1.515-6.646 1.71-1.341 0.082-3.103 0.072-4.741-0.092-0.368-0.031-0.717-0.062-1.086-0.113zM349.399 345.846c-1.474 0.615-2.928 1.086-4.505 1.454-0.348 0.092-0.697 0.174-1.055 0.236-0.041-0.42-0.062-0.809-0.092-1.209-0.041-0.645-0.082-1.27-0.144-1.904l-0.195-2.939c-0.113-1.813-0.236-3.615-0.327-5.407-0.276-5.222-0.44-10.701 0.185-15.575 0.666-4.956 2.079-8.336 4.546-10.906 1.413-1.485 3.328-2.744 5.735-3.768 1.485-0.615 2.949-1.075 4.516-1.454 0.358-0.082 0.727-0.164 1.096-0.246 0.041 0.471 0.072 0.901 0.092 1.341 0.041 0.604 0.092 1.208 0.144 1.822l0.164 2.468c0.133 1.966 0.266 3.922 0.358 5.888 0.256 4.894 0.461 10.506-0.215 15.514-0.697 4.987-2.12 8.356-4.577 10.905-1.423 1.475-3.338 2.745-5.724 3.779zM381.45 308.060c-1.209 1.055-2.427 1.976-3.789 2.837-0.286 0.185-0.604 0.368-0.921 0.553-0.164-0.379-0.317-0.748-0.481-1.106-0.236-0.594-0.491-1.178-0.738-1.751l-1.137-2.693c-0.697-1.679-1.413-3.358-2.079-5.038-2.263-5.601-3.963-10.25-4.894-14.776-0.983-4.905-0.758-8.55 0.758-11.796 0.85-1.874 2.253-3.687 4.178-5.438 1.219-1.065 2.427-1.976 3.789-2.816 0.317-0.205 0.645-0.409 0.973-0.604 0.185 0.42 0.348 0.809 0.512 1.188 0.246 0.574 0.481 1.147 0.738 1.71l1.055 2.509c0.727 1.741 1.474 3.481 2.161 5.222 1.833 4.567 3.87 9.841 4.844 14.736 0.962 4.946 0.727 8.591-0.778 11.817-0.85 1.853-2.253 3.676-4.188 5.447zM389.161 231.567c3.205 3.717 6.841 8.018 9.38 12.359 2.519 4.373 3.471 7.905 3.113 11.438-0.205 2.048-0.942 4.239-2.192 6.512-0.798 1.403-1.649 2.673-2.652 3.891-0.215 0.297-0.45 0.574-0.686 0.86-0.276-0.317-0.553-0.604-0.809-0.901-0.42-0.471-0.85-0.942-1.28-1.413-0.615-0.707-1.31-1.475-2.007-2.243-1.198-1.331-2.386-2.673-3.543-4.024-3.44-3.942-6.953-8.151-9.442-12.37-2.539-4.322-3.502-7.854-3.134-11.407 0.205-2.038 0.932-4.208 2.192-6.502 0.778-1.382 1.649-2.642 2.652-3.912 0.236-0.286 0.471-0.584 0.727-0.88 0.297 0.317 0.563 0.635 0.85 0.932 0.43 0.461 0.85 0.942 1.28 1.403l1.669 1.884c1.31 1.464 2.622 2.908 3.881 4.373zM399.851 217.938c-0.409-0.226-0.788-0.44-1.178-0.656-0.502-0.286-1.024-0.574-1.536-0.85-0.809-0.461-1.7-0.962-2.601-1.454-1.577-0.88-3.154-1.762-4.7-2.663-4.536-2.611-9.216-5.447-12.964-8.632-3.799-3.267-5.858-6.277-6.666-9.769-0.481-1.986-0.491-4.291-0.051-6.851 0.307-1.577 0.707-3.062 1.26-4.587 0.123-0.348 0.246-0.697 0.399-1.055 0.399 0.215 0.758 0.42 1.127 0.615 0.553 0.307 1.096 0.615 1.659 0.911l2.498 1.392c1.598 0.901 3.195 1.792 4.772 2.704 5.264 3.041 9.452 5.663 12.902 8.632 3.799 3.318 5.858 6.339 6.646 9.81 0.481 2.007 0.491 4.301 0.051 6.851-0.276 1.557-0.676 3.072-1.229 4.577-0.133 0.338-0.256 0.686-0.389 1.024zM350.443 145.521c0.594 0.103 1.188 0.215 1.782 0.297l2.775 0.512c1.822 0.327 3.635 0.656 5.438 1.003 5.959 1.157 10.783 2.274 15.012 3.973 4.67 1.884 7.608 4.065 9.482 7.086 1.106 1.741 1.874 3.911 2.294 6.482 0.236 1.598 0.348 3.123 0.317 4.711 0 0.348 0 0.717-0.021 1.086-0.43-0.072-0.839-0.144-1.25-0.215-0.604-0.113-1.209-0.226-1.822-0.317-0.942-0.174-1.997-0.368-3.072-0.553-1.721-0.317-3.451-0.625-5.151-0.962-5.13-0.993-10.486-2.151-15.063-3.932-4.659-1.853-7.588-4.024-9.472-7.045-1.106-1.751-1.874-3.922-2.294-6.482-0.236-1.598-0.338-3.123-0.307-4.731 0-0.368 0.010-0.748 0.031-1.137 0.45 0.082 0.891 0.154 1.321 0.226zM354.58 130.939c-1.822 0.276-3.646 0.563-5.458 0.819-5.12 0.727-10.526 1.372-15.534 1.178-4.997-0.226-8.489-1.331-11.264-3.584-1.608-1.28-3.021-3.082-4.26-5.376-0.748-1.433-1.331-2.837-1.833-4.362-0.123-0.358-0.226-0.717-0.338-1.096 0.42-0.072 0.819-0.133 1.219-0.195 0.635-0.103 1.27-0.215 1.904-0.317l2.601-0.399c1.894-0.297 3.779-0.594 5.652-0.85 4.434-0.625 9.103-1.198 13.363-1.198 0.717 0 1.423 0.010 2.13 0.062 5.028 0.246 8.51 1.372 11.274 3.615 1.628 1.29 3.051 3.092 4.281 5.376 0.758 1.454 1.341 2.846 1.833 4.352 0.113 0.338 0.226 0.697 0.338 1.045-0.44 0.082-0.86 0.144-1.28 0.205-0.594 0.092-1.188 0.185-1.792 0.286l-2.837 0.44zM318.914 101.837l-2.539 1.331c-1.628 0.86-3.257 1.71-4.885 2.539-5.386 2.755-9.861 4.844-14.295 6.175-4.813 1.413-8.438 1.495-11.817 0.276-1.935-0.676-3.861-1.925-5.765-3.697-1.178-1.106-2.192-2.253-3.164-3.533-0.226-0.286-0.45-0.594-0.676-0.911 0.42-0.215 0.809-0.43 1.198-0.635 0.533-0.276 1.055-0.553 1.587-0.85l2.181-1.157c1.741-0.911 3.481-1.843 5.223-2.724 5.417-2.755 9.892-4.844 14.274-6.113 2.58-0.748 4.834-1.106 6.841-1.106 1.782 0 3.42 0.276 4.997 0.85 1.945 0.697 3.881 1.935 5.796 3.697 1.168 1.106 2.181 2.243 3.154 3.522 0.215 0.286 0.43 0.574 0.645 0.87-0.399 0.215-0.778 0.409-1.147 0.615-0.533 0.266-1.075 0.563-1.608 0.85zM278.149 85.832c0.092 0.082 0.185 0.174 0.266 0.246-0.062 0.062-0.123 0.133-0.205 0.185-1.229 1.168-2.396 2.068-3.389 2.806-2.14 1.567-4.342 2.837-6.492 3.758-4.188 1.833-8.448 2.704-13.025 2.704-4.638-0.021-8.909-0.911-13.066-2.734-2.171-0.932-4.382-2.222-6.595-3.81-0.994-0.738-2.13-1.618-3.246-2.693-0.082-0.062-0.154-0.133-0.236-0.215 0.061-0.041 0.113-0.092 0.164-0.144 1.188-1.116 2.334-2.007 3.41-2.826 2.13-1.536 4.342-2.806 6.482-3.728 4.178-1.833 8.438-2.724 13.077-2.755 4.587 0 8.858 0.88 13.026 2.693 2.181 0.932 4.382 2.212 6.564 3.81 0.932 0.707 2.11 1.618 3.267 2.704z" />
<glyph unicode="&#xe61b;" d="M108.8 364.308v-25.108h294.4v25.108h-294.4zM108.8 212.726h294.4v25.108h-294.4v-25.108zM108.8 84.541h294.4v25.108h-294.4v-25.108z" />
<glyph unicode="&#xe61c;" d="M220.16 364.308v-25.108h183.040v25.108h-183.040zM220.16 212.726h183.040v25.108h-183.040v-25.108zM220.16 84.541h183.040v25.108h-183.040v-25.108zM187.883 101.632h-62.802v12.514l44.472 14.868c4.137 1.372 7.239 2.365 9.287 3-2.284 0.717-5.632 1.822-10.066 3.338l-43.694 15.033v11.182h62.802v-8.007h-52.562l52.562-18.248v-7.495l-53.463-18.156h53.463v-8.028zM187.883 175.145h-62.802v45.404h7.414v-37.099h19.231v34.745h7.373v-34.745h21.371v38.553h7.414v-46.858zM187.883 233.4h-62.802v8.519l49.305 32.994h-49.305v7.966h62.802v-8.53l-49.346-32.983h49.346v-7.966zM125.082 338.063v8.305h36.281c6.308 0 11.315-0.707 15.032-2.14 3.717-1.423 6.727-4.004 9.063-7.731 2.334-3.738 3.492-8.622 3.492-14.674 0-5.888-1.014-10.701-3.042-14.438s-4.966-6.41-8.806-8.007-9.083-2.396-15.739-2.396h-36.281v8.315h36.24c5.458 0 9.472 0.512 12.063 1.515 2.581 1.014 4.577 2.755 5.97 5.232 1.403 2.468 2.099 5.489 2.099 9.063 0 6.114-1.382 10.466-4.157 13.066-2.775 2.591-8.1 3.901-15.984 3.901h-36.229z" />
<glyph unicode="&#xe61d;" d="M141.936 293.232v-19.456h228.178v19.456h-228.178zM141.936 175.76h228.178v19.466h-228.178v-19.466zM141.936 76.401h228.178v19.456h-228.178v-19.456zM141.343 306.596v58.204h11.591l13.773-41.206c1.28-3.84 2.191-6.707 2.786-8.612 0.655 2.12 1.69 5.223 3.093 9.339l13.927 40.489h10.363v-58.204h-7.424v48.722l-16.906-48.722h-6.953l-16.834 49.541v-49.541h-7.414zM209.47 306.596v58.204h42.076v-6.861h-34.375v-17.828h32.205v-6.83h-32.205v-19.815h35.727v-6.871h-43.428zM263.465 306.596v58.204h7.895l30.577-45.701v45.701h7.394v-58.204h-7.906l-30.567 45.742v-45.742h-7.394zM360.448 364.8h7.7v-33.628c0-5.847-0.656-10.486-1.976-13.927s-3.707-6.236-7.168-8.397c-3.461-2.161-7.987-3.236-13.599-3.236-5.458 0-9.913 0.942-13.373 2.816-3.461 1.884-5.939 4.598-7.424 8.162-1.495 3.563-2.222 8.417-2.222 14.582v33.628h7.7v-33.587c0-5.058 0.471-8.775 1.403-11.182 0.942-2.396 2.56-4.239 4.854-5.54 2.284-1.3 5.089-1.945 8.397-1.945 5.652 0 9.697 1.28 12.103 3.85 2.396 2.57 3.615 7.506 3.615 14.807v33.597z" />
<glyph unicode="&#xe61e;" d="M111.237 266.813v74.302h14.797l17.582-52.613c1.628-4.894 2.806-8.56 3.554-10.998 0.85 2.703 2.161 6.666 3.952 11.919l17.776 51.692h13.23v-74.302h-9.482v62.198l-21.586-62.198h-8.878l-21.483 63.253v-63.253h-9.462zM198.206 266.813v74.302h53.719v-8.765h-43.888v-22.754h41.103v-8.714h-41.103v-25.293h45.609v-8.776h-55.44zM267.131 266.813v74.302h10.066l39.035-58.337v58.337h9.431v-74.302h-10.096l-39.014 58.389v-58.389h-9.421zM390.942 341.115h9.82v-42.926c0-7.465-0.839-13.394-2.529-17.787s-4.731-7.957-9.154-10.711c-4.413-2.765-10.199-4.127-17.357-4.127-6.963 0-12.656 1.209-17.070 3.594-4.423 2.406-7.577 5.878-9.472 10.424-1.904 4.547-2.837 10.752-2.837 18.617v42.926h9.83v-42.875c0-6.462 0.604-11.213 1.792-14.274 1.198-3.052 3.267-5.406 6.185-7.065s6.502-2.478 10.721-2.478c7.219 0 12.38 1.639 15.452 4.905 3.062 3.287 4.608 9.585 4.608 18.903v42.875zM403.2 225.874l-147.2-141.333-147.2 141.333z" />
<glyph unicode="&#xe61f;" d="M352 160c-32-32-32-64-64-64s-64 32-96 64-64 64-64 96 32 32 64 64-64 128-96 128-96-96-96-96c0-64 65.75-193.75 128-256s192-128 256-128c0 0 96 64 96 96s-96 128-128 96z" />
<glyph unicode="&#xe620;" d="M512 184.778l-256 198.713-256-198.714v81.019l256 198.713 256-198.714zM448 192v-192h-128v128h-128v-128h-128v192l192 144z" />
<glyph unicode="&#xe621;" d="M255.929 371.2c-81.213 0-147.036-65.904-147.036-147.2s65.833-147.2 147.036-147.2 147.036 65.904 147.036 147.2-65.833 147.2-147.036 147.2zM255.929 97.28c-69.785 0-126.556 56.842-126.556 126.72s56.77 126.72 126.556 126.72 126.556-56.842 126.556-126.72-56.771-126.72-126.556-126.72zM265.083 215.163l74.24 0.891-0.256 20.48-74.23-0.891zM264.837 235.397l-94.72-0.891 0.256-20.48 94.71 0.891z" />
</font>
</defs>
</svg>
