<?xml version="1.0" encoding="utf-8"?>
<!-- Generator: Adobe Illustrator 19.1.1, SVG Export Plug-In . SVG Version: 6.00 Build 0)  -->
<svg version="1.1" id="Layer_1" xmlns="http://www.w3.org/2000/svg" xmlns:xlink="http://www.w3.org/1999/xlink" x="0px" y="0px"
	 viewBox="0 0 500 500" style="enable-background:new 0 0 500 500;" xml:space="preserve">
<style type="text/css">
	.st0{fill:#FFFFFF;}
</style>
<g>
	<path class="st0" d="M389,229.8l-0.5-0.1c-8.3,28-27.3,41.8-34.7,60.9c-6.7,17.5-41.9,42.1-73.3,49.4c-4.7,0.9-9.8-1-10.9-6.5
		c-6.6-30.3-8.5-107.6-8.7-164.1c0-0.9,0-1.8,0-2.7l81.8-21.1h0c1.2-0.5,0.6-4.4-1.4-8.8c-2.1-4.3-4.7-7.4-6-7h-74.6
		c0-15.1,0.5-24.7,2.3-25.4c0,0,0,0,0,0c8.8-4.7,14.8-14,14.8-24.6c0-15.4-12.5-27.9-27.9-27.9C234.5,52,222,64.5,222,79.9
		c0,10.7,6,19.9,14.8,24.6c0,0,0,0,0,0c1.8,0.7,2.3,10.3,2.3,25.4h-74.6c-1.2-0.5-3.9,2.6-6,7c-2,4.3-2.7,8.2-1.4,8.8l0,0l81.8,21.1
		c0,0.9,0,1.8,0,2.7c-0.2,56.5-2.1,133.8-8.7,164.1c-1.1,5.5-6.2,7.5-10.9,6.5c-31.5-7.3-66.6-31.9-73.3-49.4
		c-7.4-19.1-26.4-32.9-34.7-60.9l-0.5,0.1c-10.6,27.5-6.6,76.3,13.9,98.7h1.3c0.7-2.8,2.5-5.9,6.1-5.9c12.5,0,30.8,24.8,67.3,44.7
		c27,14.7,41.8,30.8,50.2,44.2h0.3h0.3c8.4-13.4,23.1-29.5,50.1-44.2c36.5-19.9,54.8-44.7,67.3-44.7c3.6,0,5.5,3.1,6.1,5.9h1.3
		C395.6,306.1,399.6,257.3,389,229.8 M249.9,67c7.1,0,12.9,5.8,12.9,12.8c0,7.1-5.8,12.8-12.9,12.8c-7.1,0-12.9-5.8-12.9-12.8
		C237.1,72.8,242.8,67,249.9,67"/>
	<path class="st0" d="M202.5,174c2.7,1.1,5,2.7,6.9,4.7c2,2,3.5,4.3,4.7,7c1.2,2.7,1.7,5.5,1.7,8.5v6.6c0,1.6-0.8,2.7-2.3,3.1
		l-15.8,4.2c-1.5,0.5-2.3-0.1-2.3-1.7v-11.3c0-1.2-0.4-2.1-1.2-3c-0.8-0.8-1.8-1.2-3-1.2H190c-1.2,0-2.2,0.4-3,1.2
		c-0.8,0.8-1.2,1.8-1.2,3v15.8c0.1,1.3,0.3,2.4,0.7,3.3c0.3,0.9,1,1.9,1.9,2.8l22.8,17c1.9,1.6,3,3.3,3.6,5c0.5,1.7,0.9,3.6,1.1,5.6
		v29.9c0,3-0.6,5.9-1.7,8.5c-1.2,2.7-2.7,5-4.7,7c-2,2-4.3,3.5-6.9,4.7c-2.7,1.2-5.5,1.7-8.5,1.7h-6.6c-3,0-5.9-0.6-8.5-1.7
		c-2.7-1.1-5-2.7-7-4.7c-2-2-3.5-4.3-4.7-7c-1.1-2.7-1.7-5.5-1.7-8.5v-16.7c0-1.6,0.7-2.7,2.2-3.1l15.8-4.2c1.5-0.5,2.3,0.1,2.3,1.7
		v21.4c0,1.2,0.4,2.2,1.2,3c0.8,0.8,1.8,1.2,3,1.2h1.4c1.1,0,2.1-0.4,3-1.2c0.8-0.8,1.2-1.8,1.2-3v-22.9c-0.1-1.5-0.3-2.8-0.7-4
		c-0.4-1.2-1-2.2-2.1-3.1l-22.4-17.2c-1.7-1.6-3-3.3-3.7-4.9c-0.8-1.6-1.1-3.8-1.1-6.4v-20.9c0-3,0.6-5.9,1.7-8.5
		c1.2-2.7,2.7-5,4.7-7c2-2,4.3-3.5,7-4.7c2.7-1.2,5.5-1.7,8.5-1.7h6.6C197,172.3,199.9,172.9,202.5,174"/>
	<path class="st0" d="M320,174c2.7,1.1,5,2.7,7,4.7c2,2,3.5,4.3,4.7,7c1.2,2.7,1.8,5.5,1.8,8.5v13.9c0,1.6-0.8,2.7-2.3,3.1
		l-15.8,2.4c-1.5,0.5-2.3-0.1-2.3-1.8v-16.8c0-1.2-0.4-2.1-1.2-3c-0.8-0.8-1.8-1.2-3-1.2h-1.4c-1.2,0-2.1,0.4-3,1.2
		c-0.8,0.8-1.2,1.8-1.2,3v78.6c0,1.2,0.4,2.2,1.2,3c0.8,0.8,1.8,1.2,3,1.2h1.4c1.2,0,2.1-0.4,3-1.2c0.8-0.8,1.2-1.8,1.2-3v-24.3
		c0-1.6,0.7-2.2,2.3-1.7l15.8,2.1c1.5,0.5,2.3,1.5,2.3,3.1v21.7c0,3-0.6,5.9-1.8,8.5c-1.2,2.7-2.7,5-4.7,7c-2,2-4.3,3.5-7,4.7
		c-2.7,1.2-5.5,1.7-8.5,1.7h-6.6c-3,0-5.9-0.6-8.5-1.7c-2.7-1.1-5-2.7-7-4.7c-2-2-3.5-4.3-4.7-7c-1.1-2.7-1.7-5.5-1.7-8.5v-80.3
		c0-3,0.6-5.9,1.7-8.5c1.2-2.7,2.7-5,4.7-7c2-2,4.3-3.5,7-4.7c2.7-1.2,5.5-1.7,8.5-1.7h6.6C314.5,172.3,317.3,172.9,320,174"/>
	<path class="st0" d="M139.7,22.8c-3.7,7.4-6.5,16.4-8.7,24.2c-0.9,3-1.7,6.1-2.5,9.1l-1.2,4.5c-0.2,0.8-0.5,1.8-0.7,2.7
		c-0.2,0.7-0.4,1.4-0.6,2.2c0.6,0.1,1.2,0.1,1.8,0.2c2.9,0.3,5.6,0.3,8.1,0.2c4.2-0.3,7.9-1.3,10.9-2.8c5.3-2.7,9.4-7.3,13.1-14.7
		c3.6-7.3,6.3-16,8.7-24.3c0.8-2.9,1.6-5.8,2.4-8.7l1.3-5c0.2-0.8,0.5-1.8,0.7-2.9c0.2-0.6,0.3-1.3,0.5-2c-0.6-0.1-1.1-0.1-1.7-0.2
		c-2.9-0.3-5.6-0.3-8.1-0.2c-4.2,0.3-7.9,1.3-10.9,2.8C147.6,10.7,143.6,15.3,139.7,22.8"/>
	<path class="st0" d="M102.7,49.4c-0.1-0.9-0.1-1.9-0.2-3c0-0.7-0.1-1.3-0.1-2c-0.6,0.1-1.1,0.2-1.6,0.4c-2.7,0.6-5.2,1.4-7.7,2.5
		c-3.8,1.7-7,3.8-9.4,6.2c-4.1,4.3-6.5,9.9-7.7,18.2c-1.1,8.2-0.8,17.6-0.3,25.7c0.1,3.2,0.4,6.4,0.6,9.6l0.3,4.5
		c0.1,0.8,0.2,1.9,0.2,2.9c0,0.7,0.1,1.5,0.2,2.2c0.6-0.1,1.2-0.3,1.7-0.4c2.7-0.6,5.1-1.4,7.7-2.5c3.8-1.7,7-3.7,9.4-6.2
		c4.1-4.3,6.5-9.9,7.6-18.2c1-8.1,0.8-17.2,0.3-25.8c-0.1-3.1-0.3-6.1-0.6-9.1L102.7,49.4z"/>
	<path class="st0" d="M55,122.1c-1.1-2.9-2.3-5.6-3.5-8.4l-1.9-4.7c-0.3-0.8-0.8-1.8-1.2-2.7c-0.3-0.6-0.5-1.2-0.8-1.9
		c-0.5,0.3-1,0.6-1.4,0.9c-2.3,1.5-4.4,3-6.5,4.9c-3.1,2.8-5.5,5.9-6.8,8.9c-2.5,5.4-2.9,11.5-1.3,19.8c1.6,8.2,5,16.9,8,24.4
		c1.2,2.9,2.4,5.8,3.6,8.8l1.8,4.3c0.3,0.8,0.7,1.7,1.1,2.6c0.3,0.7,0.6,1.3,0.9,2c0.5-0.3,1-0.6,1.5-0.9c2.3-1.5,4.4-3,6.5-4.8
		c3.1-2.8,5.4-5.9,6.8-8.9c2.5-5.4,2.9-11.5,1.3-19.7C61.5,138.6,58.2,130.1,55,122.1"/>
	<path class="st0" d="M45.4,243.5c2-3.7,3.2-7.3,3.6-10.7c0.6-5.9-1-11.8-5.2-19c-4.1-7-10-14-15.6-20.5c-2-2.3-4-4.6-6-6.8
		l-3.4-3.8c-0.6-0.6-1.3-1.4-2-2.1c-0.5-0.5-0.9-1-1.4-1.6c-0.4,0.4-0.7,0.9-1.1,1.3c-1.8,2.2-3.2,4.3-4.5,6.7
		c-2,3.7-3.3,7.3-3.6,10.7c-0.6,5.9,1,11.8,5.2,19.1c3.8,6.5,9,12.9,15.6,20.5c2.1,2.4,4.2,4.8,6.3,7.2l3,3.4c0.6,0.6,1.3,1.4,2,2.2
		c0.5,0.5,0.9,1,1.4,1.6c0.4-0.5,0.8-0.9,1.1-1.4C42.6,248,44,245.9,45.4,243.5"/>
	<path class="st0" d="M47.4,283.6c-6.2-5.3-14-10-21.5-14.3c-2.6-1.6-5.3-3-7.9-4.5l-4.4-2.4c-0.7-0.4-1.6-0.9-2.5-1.4
		c-0.6-0.3-1.3-0.7-1.9-1.1c-0.2,0.5-0.4,1.1-0.6,1.6c-1,2.6-1.6,5.1-2.1,7.8c-0.7,4.1-0.7,7.9,0.1,11.2c1.3,5.8,4.8,10.8,11.1,16.4
		c5.7,4.9,12.7,9.3,21.4,14.3c2.7,1.6,5.4,3.1,8.1,4.6l4.2,2.4c0.8,0.4,1.7,0.9,2.7,1.5c0.6,0.3,1.2,0.6,1.8,1
		c0.2-0.6,0.4-1.1,0.6-1.7c0.9-2.6,1.6-5.1,2.2-7.9c0.7-4.1,0.7-7.9-0.1-11.2C57.1,294.1,53.7,289.1,47.4,283.6"/>
	<path class="st0" d="M49.8,370.8c7,2.8,15,4.6,24.9,6.6c3,0.6,6,1.1,9.1,1.7l4.8,0.9c0.8,0.1,1.8,0.3,2.8,0.5
		c0.7,0.1,1.5,0.3,2.2,0.4c0-0.6,0-1.2,0-1.8c0.1-2.8-0.1-5.3-0.5-8.1c-0.7-4.1-1.9-7.7-3.7-10.6c-3.2-5.1-8.1-8.7-15.8-11.8
		c-7.5-3-16.5-4.9-25-6.5c-2.9-0.6-5.8-1.1-8.7-1.6c-1.8-0.3-3.5-0.6-5.3-0.9c-0.8-0.1-1.9-0.3-2.9-0.5c-0.7-0.1-1.4-0.2-2-0.4
		c0,0.6,0,1.1,0,1.7c0,2.8,0.1,5.4,0.5,8.1c0.7,4.2,1.9,7.8,3.7,10.6C37.1,364,42,367.6,49.8,370.8"/>
	<path class="st0" d="M84.5,404.6l-4.9,0.7c-0.8,0.1-1.8,0.3-2.8,0.5c-0.7,0.1-1.4,0.2-2.1,0.3c0.2,0.6,0.3,1.1,0.5,1.6
		c0.9,2.6,1.9,5,3.1,7.5c2,3.7,4.4,6.7,7,8.8c4.6,3.8,10.5,5.6,18.9,6.1c1.1,0.1,2.3,0.1,3.5,0.1c6.7,0,13.7-0.8,22.2-2
		c3.2-0.4,6.3-0.9,9.5-1.4l4.5-0.7c0.9-0.1,1.9-0.3,2.9-0.5c0.7-0.1,1.4-0.2,2.1-0.3c-0.2-0.6-0.4-1.2-0.5-1.7
		c-0.9-2.6-1.9-5-3.1-7.5c-2-3.7-4.4-6.7-7-8.8c-4.7-3.8-10.5-5.6-18.8-6c-1,0-2-0.1-3.1-0.1c-7.4,0-15.2,1-22.6,2
		C90.5,403.7,87.5,404.1,84.5,404.6"/>
	<path class="st0" d="M209,441.9c-3.1-2.9-6.3-4.9-9.5-6c-5.7-2.1-11.6-1.9-19.7,0.4c-7.8,2.3-16,6.3-23.7,10.2
		c-2.7,1.4-5.4,2.8-8,4.2l-4.5,2.4c-0.7,0.4-1.6,0.9-2.5,1.3c-0.6,0.3-1.3,0.7-1.9,1c0.3,0.5,0.7,0.9,1,1.4c1.7,2.2,3.4,4.1,5.4,6
		c3.1,2.9,6.3,4.9,9.5,6c5.7,2.1,11.6,1.9,19.8-0.4c7.2-2.1,14.7-5.6,23.6-10.1c2.9-1.5,5.7-3,8.6-4.5l3.9-2.1
		c0.7-0.4,1.6-0.9,2.5-1.3c0.7-0.4,1.3-0.7,2-1.1c-0.4-0.5-0.7-1-1.1-1.4C212.8,445.7,211.1,443.8,209,441.9"/>
	<path class="st0" d="M326.2,5.5c0.2,0.7,0.4,1.4,0.6,2.1c0.3,0.9,0.5,1.9,0.8,2.8l1.2,4.6c0.8,3,1.6,6,2.5,8.9
		c2.8,9.7,5.3,17.5,8.7,24.4c3.7,7.4,7.8,12,13.1,14.7c3,1.6,6.7,2.5,11.1,2.8c0.8,0.1,1.9,0.1,2.9,0.1c1.7,0,3.3-0.1,5-0.3
		c0.6-0.1,1.2-0.1,1.9-0.2c-0.2-0.7-0.4-1.4-0.5-2c-0.3-1-0.5-2-0.8-3.1l-1.2-4.3c-0.8-3-1.6-6.1-2.5-9.1c-2.3-7.9-5-16.8-8.7-24.3
		c-3.8-7.5-7.9-12-13.1-14.7c-3-1.6-6.7-2.5-11-2.9c-2.2-0.1-5.2-0.1-7.9,0.1C327.4,5.4,326.8,5.5,326.2,5.5"/>
	<path class="st0" d="M406.7,47.3c-2.5-1-4.9-1.8-7.5-2.4c-0.6-0.1-1.2-0.3-1.8-0.4c-0.1,0.7-0.1,1.3-0.1,2
		c-0.1,1.1-0.1,2.1-0.2,3.2l-0.3,4.9c-0.2,3-0.4,6-0.5,9c-0.5,8.7-0.7,17.8,0.3,25.9c1.1,8.2,3.5,13.9,7.6,18.1
		c2.4,2.5,5.5,4.6,9.5,6.3c2.5,1,4.9,1.8,7.5,2.4c0.6,0.1,1.2,0.3,1.8,0.4c0.1-0.8,0.1-1.5,0.2-2.2c0.1-1,0.1-2,0.2-3l0.3-4.1
		c0.2-3.3,0.4-6.5,0.6-9.8c0.4-8.1,0.8-17.5-0.4-25.8c-1.2-8.3-3.5-13.9-7.6-18.1C413.9,51.1,410.7,49,406.7,47.3"/>
	<path class="st0" d="M460.1,110.1c-2-1.8-4-3.3-6.3-4.7c-0.5-0.3-1-0.6-1.5-0.9c-0.3,0.6-0.5,1.2-0.8,1.8c-0.4,1-0.8,2-1.2,2.9
		l-1.9,4.5c-1.2,2.8-2.4,5.6-3.5,8.4c-3.8,9.3-6.6,17-8.1,24.6c-1.6,8.2-1.3,14.2,1.3,19.6c1.4,3.1,3.7,6.1,7,9c2,1.8,4,3.3,6.3,4.7
		c0.5,0.3,1.1,0.7,1.6,1c0.3-0.7,0.6-1.3,0.8-2c0.4-1,0.8-1.9,1.2-2.8l1.8-4.2c1.2-2.9,2.4-5.8,3.6-8.7c3-7.6,6.4-16.4,8-24.5
		c1.6-8.2,1.2-14.3-1.3-19.6C465.6,116.1,463.3,113,460.1,110.1"/>
	<path class="st0" d="M472.9,237.3c5.3-6.2,11.4-13.3,15.6-20.6c4.2-7.3,5.8-13.1,5.2-19c-0.3-3.4-1.6-7-3.6-10.8
		c-1.3-2.3-2.7-4.4-4.4-6.5c-0.4-0.5-0.7-0.9-1.1-1.4c-0.5,0.5-0.9,1-1.3,1.5c-0.7,0.8-1.4,1.6-2.1,2.3c-1,1.2-2.2,2.5-3.3,3.7
		c-2,2.2-4,4.4-5.9,6.7c-5.7,6.6-11.6,13.6-15.7,20.6c-4.2,7.2-5.8,13.1-5.2,19c0.3,3.4,1.6,7,3.6,10.8c1.3,2.3,2.7,4.4,4.4,6.5
		c0.4,0.5,0.8,1,1.2,1.5c0.5-0.5,0.9-1,1.4-1.6c0.7-0.8,1.4-1.6,2.1-2.3l2.8-3.1C468.6,242.1,470.8,239.7,472.9,237.3"/>
	<path class="st0" d="M490.6,259.9c-0.7,0.4-1.3,0.7-2,1.1c-0.8,0.5-1.7,0.9-2.6,1.4c-1.3,0.8-2.8,1.6-4.3,2.4
		c-2.6,1.5-5.2,2.9-7.8,4.4c-7.5,4.3-15.3,9.1-21.6,14.3c-6.3,5.4-9.7,10.4-11.1,16.2c-0.8,3.3-0.8,7.1-0.1,11.4
		c0.5,2.6,1.2,5.1,2.1,7.6c0.2,0.6,0.4,1.2,0.7,1.8c0.7-0.4,1.3-0.7,1.9-1c0.9-0.5,1.8-1,2.8-1.5l4.1-2.3c2.7-1.5,5.3-3,7.9-4.5
		c8.7-5.1,15.7-9.4,21.5-14.3c6.3-5.5,9.7-10.5,11.1-16.3c0.8-3.3,0.8-7.2,0.1-11.4c-0.5-2.6-1.1-5.1-2-7.6
		C491.1,261.1,490.9,260.5,490.6,259.9"/>
	<path class="st0" d="M408.5,380.4c1-0.2,2-0.3,3-0.5l4.6-0.8c3-0.5,6.1-1.1,9-1.7c9.9-1.9,17.9-3.8,25-6.6
		c7.8-3.1,12.6-6.8,15.8-11.8c1.8-2.9,3.1-6.5,3.8-10.8c0.4-2.7,0.6-5.2,0.5-7.8c0-0.6,0-1.2,0-1.8c-0.7,0.1-1.4,0.2-2.1,0.4
		c-1,0.2-2,0.4-3,0.5c-1.6,0.3-3.3,0.6-5.1,0.9c-2.9,0.5-5.7,1-8.6,1.6c-8.5,1.6-17.4,3.6-25,6.5c-7.7,3.1-12.6,6.7-15.8,11.7
		c-1.8,2.9-3.1,6.5-3.8,10.8c-0.4,2.7-0.6,5.2-0.5,7.9c0,0.6,0,1.2,0.1,1.9C407,380.6,407.8,380.5,408.5,380.4"/>
	<path class="st0" d="M415.4,404.6c-3-0.5-6.1-0.9-9.1-1.4c-8.5-1.2-17.5-2.3-25.8-2c-8.3,0.4-14.1,2.2-18.7,6
		c-2.7,2.1-5,5.1-7.1,8.9c-1.2,2.4-2.2,4.7-3.1,7.2c-0.2,0.6-0.4,1.2-0.6,1.8c0.7,0.1,1.4,0.2,2,0.3c1.1,0.2,2.1,0.3,3.2,0.5
		l4.3,0.7c3.1,0.5,6.3,1,9.4,1.4c7.4,1,15.1,2,22.2,2c1.2,0,2.4,0,3.5-0.1c8.4-0.4,14.2-2.3,18.7-6c2.7-2.2,5.1-5.1,7.1-8.9
		c1.3-2.4,2.2-4.7,3-7.2c0.2-0.6,0.4-1.2,0.6-1.7c-0.7-0.1-1.4-0.2-2.1-0.3c-1-0.1-2-0.3-3-0.5L415.4,404.6z"/>
	<path class="st0" d="M356.1,453l-4.2-2.2c-2.7-1.4-5.4-2.9-8.1-4.2c-9-4.6-16.4-8.1-23.8-10.3c-8-2.3-14-2.5-19.7-0.5
		c-3.2,1.1-6.4,3.2-9.6,6.1c-2,1.8-3.6,3.7-5.3,5.9c-0.4,0.5-0.8,1-1.1,1.5c0.7,0.4,1.3,0.7,2,1.1c0.9,0.5,1.8,0.9,2.6,1.4l3.6,1.9
		c2.9,1.5,5.8,3.1,8.7,4.5c9,4.6,16.5,8,23.7,10.2c4.3,1.2,8,1.8,11.4,1.8c3,0,5.7-0.5,8.3-1.4c3.2-1.2,6.5-3.2,9.6-6.1
		c1.9-1.8,3.6-3.7,5.2-5.9c0.4-0.5,0.7-0.9,1.1-1.4c-0.7-0.3-1.3-0.7-1.9-1C357.8,454,357,453.5,356.1,453"/>
	<path class="st0" d="M288.3,479.6c0.1-0.1,0.3-0.3,0.4-0.4c-0.1-0.1-0.2-0.2-0.3-0.3c-2-1.9-4-3.4-5.6-4.7
		c-3.6-2.6-7.2-4.7-10.8-6.3c-7-3-14.1-4.5-21.7-4.5c-7.7,0-14.8,1.5-21.7,4.5c-3.6,1.5-7.3,3.7-11,6.3c-1.6,1.2-3.5,2.7-5.4,4.5
		c-0.1,0.1-0.3,0.2-0.4,0.4c0.1,0.1,0.2,0.2,0.3,0.2c2,1.9,3.9,3.3,5.7,4.7c3.5,2.6,7.2,4.7,10.8,6.2c6.9,3,14,4.5,21.7,4.6
		c7.6,0,14.7-1.5,21.7-4.5c3.6-1.6,7.3-3.7,10.9-6.3C284.4,482.9,286.4,481.4,288.3,479.6"/>
</g>
</svg>
